<?xml version="1.0" encoding="utf-8"?>
<!-- Generator: Adobe Illustrator 16.0.0, SVG Export Plug-In . SVG Version: 6.00 Build 0)  -->
<!DOCTYPE svg PUBLIC "-//W3C//DTD SVG 1.0//EN" "http://www.w3.org/TR/2001/REC-SVG-20010904/DTD/svg10.dtd">
<svg version="1.0" id="Layer_1" xmlns="http://www.w3.org/2000/svg" xmlns:xlink="http://www.w3.org/1999/xlink" x="0px" y="0px"
	 width="100px" height="100px" viewBox="0 0 100 100" enable-background="new 0 0 100 100" xml:space="preserve">
<polygon points="90,46.666 63.333,73.333 46.667,56.667 51.381,51.953 63.333,63.906 85.286,41.953 "/>
<path d="M79.899,73.434l-0.727-6.513l-6.035,6.034l0.137,1.215c0.277,2.496-0.413,4.811-1.939,6.517
	c-1.527,1.706-3.75,2.646-6.264,2.646H24.927c-2.511,0-4.735-0.94-6.261-2.646c-1.528-1.706-2.217-4.021-1.938-6.517l4.167-37.503
	h6.44l-0.667,6.666h6.701l0.667-6.666h21.932l0.668,6.666h6.698l-0.664-6.666h6.436l1.205,10.836l6.038-6.038L75.071,30H61.999
	l-1.003-10.049C60.449,14.478,55.502,10,50,10H40c-5.5,0-10.448,4.478-10.995,9.951L28,30H14.927l-4.826,43.434
	C9.089,82.545,15.761,90,24.927,90h40.144C74.238,90,80.911,82.545,79.899,73.434z M35.64,20.613
	c0.207-2.065,2.285-3.946,4.36-3.946h10c2.077,0,4.157,1.881,4.362,3.946L55.3,30H34.701L35.64,20.613z"/>
</svg>
