<?xml version="1.0" encoding="UTF-8"?>
<svg width="700pt" height="700pt" version="1.1" viewBox="0 0 700 700" xmlns="http://www.w3.org/2000/svg">
 <path d="m567.25 472.5-116.83-116.83c28.465-34.812 42.461-79.234 39.09-124.08-3.3711-44.844-23.844-86.672-57.191-116.84-33.348-30.168-77.016-46.363-121.97-45.242-44.957 1.125-87.758 19.484-119.56 51.281-31.797 31.801-50.156 74.602-51.281 119.56-1.1211 44.953 15.074 88.621 45.242 121.97 30.172 33.348 72 53.82 116.84 57.191 44.844 3.3711 89.266-10.625 124.08-39.09l116.83 116.83zm-392.25-227.5c0-37.129 14.75-72.738 41.004-98.996 26.258-26.254 61.867-41.004 98.996-41.004s72.738 14.75 98.996 41.004c26.254 26.258 41.004 61.867 41.004 98.996s-14.75 72.738-41.004 98.996c-26.258 26.254-61.867 41.004-98.996 41.004-37.117-0.042969-72.703-14.805-98.949-41.051-26.246-26.246-41.008-61.832-41.051-98.949z"/>
</svg>
